#!OML:ASF H:\Dans Jumps\Project 1\Capture day 1\Session 1\subject.ASF
:FULLY-SPECIFIED
:DEGREES
66
root 0.172676 17.579 -14.4094 7.89533 -0.735694 -1.76878
lowerback 1.35978 -0.50585 0.513893
upperback 5.44797 -0.758035 1.84241
thorax 4.87932 -0.402094 1.59535
lowerneck -12.2774 0.486948 -2.28346
upperneck 33.6426 1.19934 0.319346
head 13.3356 0.270963 0.702726
rclavicle -9.54166e-015 1.68967e-014
rhumerus -19.7449 -17.7615 -80.7254
rradius 23.7358
rwrist 31.3822
rhand -19.2826 -26.8284
rfingers 7.12502
rthumb 7.03237 -56.6915
lclavicle -9.54166e-015 1.68967e-014
lhumerus -17.3014 -0.448699 88.3024
lradius 18.05
lwrist 3.1181
lhand -25.4889 -3.16901
lfingers 7.12502
lthumb 1.03942 26.8082
rfemur -17.7439 -3.02611 20.3228
rtibia 23.1245
rfoot -12.3312 -2.04307
rtoes 12.0503
lfemur -16.8032 6.9209 -17.9814
ltibia 21.6543
lfoot -10.4359 4.60821
ltoes 0.622701
67
root 0.173877 17.5762 -14.4152 7.92485 -0.752401 -1.76035
lowerback 1.41996 -0.502103 0.502842
upperback 5.44641 -0.75161 1.83725
thorax 4.84334 -0.39921 1.59683
lowerneck -12.2874 0.492287 -2.26768
upperneck 33.5938 1.2112 0.294275
head 13.3168 0.275396 0.691533
rclavicle 7.95139e-016 9.14409e-015
rhumerus -19.8294 -17.6419 -80.7034
rradius 23.8243
rwrist 31.2605
rhand -19.2758 -26.8216
rfingers 7.12502
rthumb 7.03893 -56.6845
lclavicle 7.95139e-016 9.14409e-015
lhumerus -17.3804 -0.499499 88.2902
lradius 18.1308
lwrist 3.28202
lhand -25.4955 -3.15672
lfingers 7.12502
lthumb 1.03302 26.8205
rfemur -17.8686 -3.00844 20.3116
rtibia 23.251
rfoot -12.357 -2.05147
rtoes 12.0167
lfemur -16.9213 6.93091 -18.0024
ltibia 21.78
lfoot -10.4697 4.62076
ltoes 0.621596
68
root 0.175143 17.5731 -14.4215 7.96089 -0.770284 -1.75088
lowerback 1.4818 -0.497785 0.490034
upperback 5.44655 -0.744436 1.83243
thorax 4.80822 -0.396042 1.59966
lowerneck -12.2942 0.497802 -2.25298
upperneck 33.5299 1.22256 0.271443
head 13.2907 0.279962 0.681215
rclavicle -5.96354e-016 5.76476e-015
rhumerus -19.9245 -17.507 -80.6776
rradius 23.9263
rwrist 31.1093
rhand -19.2648 -26.8199
rfingers 7.12502
rthumb 7.04953 -56.6825
lclavicle -5.96354e-016 5.76476e-015
lhumerus -17.4565 -0.544285 88.2749
lradius 18.2074
lwrist 3.44446
lhand -25.5019 -3.1345
lfingers 7.12502
lthumb 1.02681 26.8428
rfemur -18.0132 -2.9925 20.3002
rtibia 23.3973
rfoot -12.389 -2.06002
rtoes 11.9657
lfemur -17.0606 6.94985 -18.0271
ltibia 21.9273
lfoot -10.5123 4.62888
ltoes 0.613603
69
root 0.176459 17.5694 -14.4285 8.00252 -0.78862 -1.7413
lowerback 1.54919 -0.493389 0.476764
upperback 5.4482 -0.737124 1.82789
thorax 4.77156 -0.392833 1.6031
lowerneck -12.303 0.503509 -2.24112
upperneck 33.4534 1.23314 0.253625
head 13.2597 0.28464 0.673193
rclavicle 4.77083e-015 -2.38542e-014
rhumerus -20.0273 -17.3622 -80.6478
rradius 24.0333
rwrist 30.9364
rhand -19.2604 -26.8112
rfingers 7.12502
rthumb 7.05381 -56.6737
lclavicle 4.77083e-015 -2.38542e-014
lhumerus -17.5347 -0.583787 88.2551
lradius 18.2867
lwrist 3.60851
lhand -25.5056 -3.09448
lfingers 7.12502
lthumb 1.02329 26.8828
rfemur -18.178 -2.97952 20.2895
rtibia 23.565
rfoot -12.4253 -2.06876
rtoes 11.873
lfemur -17.2225 6.98007 -18.0544
ltibia 22.1
lfoot -10.5647 4.63037
ltoes 0.598962
70
root 0.177812 17.5651 -14.4362 8.04835 -0.80435 -1.73193
lowerback 1.62384 -0.489502 0.463581
upperback 5.45224 -0.730456 1.82376
thorax 4.73331 -0.389952 1.60693
lowerneck -12.3187 0.50878 -2.22819
upperneck 33.3676 1.24227 0.237578
head 13.2262 0.289145 0.665457
rclavicle 1.88845e-015 -7.15625e-015
rhumerus -20.1371 -17.209 -80.6146
rradius 24.1449
rwrist 30.7468
rhand -19.2734 -26.7908
rfingers 7.12502
rthumb 7.04126 -56.6537
lclavicle 1.88845e-015 -7.15625e-015
lhumerus -17.611 -0.617201 88.2307
lradius 18.362
lwrist 3.77396
lhand -25.5192 -3.05169
lfingers 7.12502
lthumb 1.01007 26.9257
rfemur -18.3613 -2.97404 20.2804
rtibia 23.755
rfoot -12.4716 -2.07523
rtoes 11.7673
lfemur -17.4079 7.01951 -18.0835
ltibia 22.3015
lfoot -10.6289 4.62269
ltoes 0.584098
71
root 0.179114 17.56 -14.4448 8.09954 -0.815659 -1.72401
lowerback 1.70783 -0.486618 0.451492
upperback 5.45727 -0.725053 1.8203
thorax 4.69084 -0.387662 1.61087
lowerneck -12.3364 0.513204 -2.21832
upperneck 33.2704 1.24923 0.226456
head 13.1882 0.293097 0.659818
rclavicle 1.21259e-014 3.37934e-015
rhumerus -20.2494 -17.0634 -80.5762
rradius 24.2488
rwrist 30.5585
rhand -19.2986 -26.7655
rfingers 7.12502
rthumb 7.0169 -56.6292
lclavicle 1.21259e-014 3.37934e-015
lhumerus -17.6899 -0.639508 88.2002
lradius 18.4355
lwrist 3.93486
lhand -25.5551 -3.05517
lfingers 7.12502
lthumb 0.975426 26.9223
rfemur -18.5658 -2.97576 20.2746
rtibia 23.9686
rfoot -12.5263 -2.0823
rtoes 11.6364
lfemur -17.6209 7.06541 -18.1123
ltibia 22.5349
lfoot -10.7029 4.60633
ltoes 0.571072
72
root 0.180322 17.5542 -14.4545 8.15588 -0.821406 -1.71967
lowerback 1.80139 -0.484854 0.442116
upperback 5.46446 -0.721145 1.8186
thorax 4.64528 -0.38604 1.61515
lowerneck -12.361 0.517029 -2.20581
upperneck 33.1647 1.25562 0.212625
head 13.1483 0.296862 0.652573
rclavicle -1.15295e-014 1.23246e-014
rhumerus -20.3605 -16.9319 -80.5319
rradius 24.3413
rwrist 30.3811
rhand -19.3365 -26.7345
rfingers 7.12502
rthumb 6.98031 -56.5994
lclavicle -1.15295e-014 1.23246e-014
lhumerus -17.7718 -0.653304 88.1649
lradius 18.5094
lwrist 4.0957
lhand -25.6055 -3.08795
lfingers 7.12502
lthumb 0.926746 26.8898
rfemur -18.7923 -2.98455 20.2747
rtibia 24.2068
rfoot -12.5931 -2.08922
rtoes 11.5079
lfemur -17.8634 7.1153 -18.138
ltibia 22.8029
lfoot -10.7886 4.58141
ltoes 0.569328
73
root 0.18141 17.5474 -14.4654 8.21805 -0.818665 -1.71799
lowerback 1.90394 -0.485155 0.435521
upperback 5.47303 -0.719936 1.81752
thorax 4.59611 -0.385651 1.6185
lowerneck -12.3854 0.521425 -2.18802
upperneck 33.0472 1.26201 0.196544
head 13.1034 0.301129 0.643461
rclavicle 1.39149e-015 -1.03368e-014
rhumerus -20.4708 -16.8199 -80.4827
rradius 24.4204
rwrist 30.2175
rhand -19.3813 -26.7059
rfingers 7.12502
rthumb 6.93708 -56.5722
lclavicle 1.39149e-015 -1.03368e-014
lhumerus -17.8614 -0.671486 88.125
lradius 18.586
lwrist 4.26777
lhand -25.6755 -3.1591
lfingers 7.12502
lthumb 0.859203 26.8189
rfemur -19.0423 -3.00328 20.2801
rtibia 24.4715
rfoot -12.6712 -2.09726
rtoes 11.3528
lfemur -18.1378 7.16774 -18.1617
ltibia 23.1075
lfoot -10.8858 4.54822
ltoes 0.570501
74
root 0.182473 17.5397 -14.4774 8.28657 -0.810824 -1.72363
lowerback 2.01317 -0.486132 0.436871
upperback 5.48516 -0.719732 1.8183
thorax 4.54688 -0.385478 1.61937
lowerneck -12.4065 0.525493 -2.16779
upperneck 32.9107 1.26731 0.179284
head 13.05 0.305304 0.633179
rclavicle 1.00386e-014 -1.78906e-015
rhumerus -20.5816 -16.7199 -80.4279
rradius 24.4906
rwrist 30.0635
rhand -19.4233 -26.6884
rfingers 7.12502
rthumb 6.89655 -56.5561
lclavicle 1.00386e-014 -1.78906e-015
lhumerus -17.9545 -0.686386 88.0808
lradius 18.6632
lwrist 4.44419
lhand -25.7641 -3.27862
lfingers 7.12502
lthumb 0.773546 26.6997
rfemur -19.3178 -3.03209 20.2956
rtibia 24.7644
rfoot -12.7629 -2.09908
rtoes 11.2154
lfemur -18.4449 7.22156 -18.1785
ltibia 23.4504
lfoot -10.9959 4.51292
ltoes 0.576394
75
root 0.183584 17.5309 -14.4905 8.36182 -0.800012 -1.73273
lowerback 2.12842 -0.487686 0.442331
upperback 5.50104 -0.720313 1.81965
thorax 4.49818 -0.385549 1.61858
lowerneck -12.4237 0.531233 -2.14106
upperneck 32.7541 1.27435 0.157719
head 12.9873 0.310722 0.620214
rclavicle 1.88845e-015 -2.20651e-014
rhumerus -20.6914 -16.6264 -80.3682
rradius 24.5517
rwrist 29.9134
rhand -19.4664 -26.6758
rfingers 7.12502
rthumb 6.85497 -56.5449
lclavicle 1.88845e-015 -2.20651e-014
lhumerus -18.0514 -0.702045 88.0322
lradius 18.7388
lwrist 4.63236
lhand -25.8599 -3.41408
lfingers 7.12502
lthumb 0.681032 26.5646
rfemur -19.6217 -3.07502 20.3172
rtibia 25.0877
rfoot -12.8682 -2.09022
rtoes 11.0887
lfemur -18.7849 7.28155 -18.1944
ltibia 23.8314
lfoot -11.1194 4.4738
ltoes 0.580025
76
root 0.184907 17.521 -14.5045 8.44346 -0.79083 -1.74563
lowerback 2.24726 -0.48807 0.453293
upperback 5.52283 -0.719416 1.82128
thorax 4.45358 -0.384689 1.61504
lowerneck -12.4416 0.537466 -2.11106
upperneck 32.5773 1.28141 0.134855
head 12.9166 0.316603 0.606091
rclavicle -6.4605e-015 5.56597e-015
rhumerus -20.7981 -16.5412 -80.303
rradius 24.6046
rwrist 29.773
rhand -19.5092 -26.6698
rfingers 7.12502
rthumb 6.81357 -56.5402
lclavicle -6.4605e-015 5.56597e-015
lhumerus -18.1433 -0.717764 87.98
lradius 18.8038
lwrist 4.83032
lhand -25.9725 -3.58756
lfingers 7.12502
lthumb 0.572295 26.3914
rfemur -19.9541 -3.13094 20.3443
rtibia 25.4437
rfoot -12.9866 -2.06681
rtoes 10.9828
lfemur -19.1563 7.35328 -18.2106
ltibia 24.2505
lfoot -11.256 4.43185
ltoes 0.564901
77
root 0.1865 17.51 -14.5193 8.52938 -0.782657 -1.75833
lowerback 2.37305 -0.487571 0.467066
upperback 5.5505 -0.717277 1.82159
thorax 4.41116 -0.383086 1.60865
lowerneck -12.4627 0.543538 -2.08092
upperneck 32.3827 1.28715 0.114652
head 12.8394 0.322453 0.592747
rclavicle -2.78299e-015 -5.1684e-015
rhumerus -20.9013 -16.4695 -80.2322
rradius 24.6445
rwrist 29.6508
rhand -19.5517 -26.6656
rfingers 7.12502
rthumb 6.77255 -56.5373
lclavicle -2.78299e-015 -5.1684e-015
lhumerus -18.2306 -0.738365 87.9239
lradius 18.86
lwrist 5.04229
lhand -26.0884 -3.77966
lfingers 7.12502
lthumb 0.460401 26.1996
rfemur -20.3154 -3.20066 20.373
rtibia 25.8347
rfoot -13.1105 -2.03384
rtoes 10.8391
lfemur -19.5563 7.43735 -18.2317
ltibia 24.7066
lfoot -11.4058 4.38487
ltoes 0.530946
78
root 0.188363 17.4977 -14.535 8.61826 -0.775732 -1.76957
lowerback 2.5102 -0.485647 0.480503
upperback 5.58374 -0.713116 1.82178
thorax 4.36812 -0.380508 1.60244
lowerneck -12.4971 0.549523 -2.04564
upperneck 32.1787 1.29348 0.0888957
head 12.7616 0.328517 0.576525
rclavicle -6.4605e-015 2.08724e-014
rhumerus -21.0052 -16.4042 -80.1545
rradius 24.6789
rwrist 29.5465
rhand -19.5921 -26.6572
rfingers 7.12502
rthumb 6.73356 -56.5301
lclavicle -6.4605e-015 2.08724e-014
lhumerus -18.3109 -0.763999 87.8666
lradius 18.9078
lwrist 5.26745
lhand -26.1973 -3.93636
lfingers 7.12502
lthumb 0.35521 26.0431
rfemur -20.7066 -3.28131 20.4021
rtibia 26.2627
rfoot -13.2362 -1.99643
rtoes 10.6413
lfemur -19.9829 7.53175 -18.2587
ltibia 25.1978
lfoot -11.5665 4.33302
ltoes 0.483214
